<?xml version="1.0" encoding="utf-8"?>
<!-- Generator: Adobe Illustrator 21.1.0, SVG Export Plug-In . SVG Version: 6.00 Build 0)  -->
<svg version="1.1" id="Layer_1" xmlns="http://www.w3.org/2000/svg" xmlns:xlink="http://www.w3.org/1999/xlink" x="0px" y="0px"
	 viewBox="0 0 1920 1080" style="enable-background:new 0 0 1920 1080;" xml:space="preserve">
<style type="text/css">
	.st0{fill:none;stroke:#000000;stroke-width:4;stroke-miterlimit:10;}
	.st1{font-family:'Futura-Medium';}
	.st2{font-size:90px;}
</style>
<g>
	<g>
		<path class="st0" d="M522.4,381.4H320.3v79.9h145.9v63.4H320.9v158.8H260V320h262.4V381.4z"/>
		<path class="st0" d="M497.8,347.6H295.7v79.9h145.9v63.4H296.2v158.8h-60.8V286.2h262.4V347.6z"/>
		<path class="st0" d="M510.1,377.9H308v79.9h145.9v63.4H308.5V680h-60.8V316.6h262.4V377.9z"/>
		<path class="st0" d="M501.3,366H299.2v79.9h145.9v63.4H299.7v158.8h-60.8V304.6h262.4V366z"/>
		<path class="st0" d="M489,372.3H286.9v79.9h145.9v63.4H287.4v158.8h-60.8V311H489V372.3z"/>
		<path class="st0" d="M501.3,345.7H299.2v79.9h145.9V489H299.7v158.8h-60.8V284.3h262.4V345.7z"/>
		<path class="st0" d="M485.5,374.3H283.4v79.9h145.9v63.4H283.9v158.8h-60.8V313h262.4V374.3z"/>
	</g>
	<g>
		<path class="st0" d="M785.9,344c25.4,4.4,48.2,13.2,68.4,26.4c20.2,13.3,37,29.4,50.2,48.4c13.3,19,22.6,40.2,28,63.4
			c5.4,23.3,6,47.1,1.8,71.5c-4.4,25.4-363.1-36.4-358.7-61.8c4.4-25.4,13.2-48.2,26.4-68.4c13.3-20.2,29.4-36.9,48.4-50
			c19-13.1,40.2-22.4,63.6-27.7C737.6,340.4,761.5,339.8,785.9,344z M775.5,404.4c-15.6-2.7-31-2.1-46.3,1.7
			c-15.3,3.8-29.2,10.2-41.8,19.2c-12.5,9-23.2,20.1-31.9,33.2c-8.7,13.1-14.5,27.8-17.3,44.1c-2.8,16.3-2.3,32,1.5,47.3
			c3.8,15.3,10.1,29.3,18.9,42c8.8,12.7,19.8,23.4,32.9,32.1c13.1,8.7,27.5,14.4,43.1,17.1c15.6,2.7,31,2.1,46.3-1.7
			c15.3-3.8,29.2-10.2,41.8-19.2c12.5-9,23.2-20.1,31.9-33.2c8.7-13.1,14.5-27.8,17.3-44.1c2.6-15.2,2.2-30.5-1.3-45.7
			c-3.5-15.2-9.5-29.3-18.1-42.1c-8.6-12.8-19.4-23.8-32.5-32.8C806.9,413.3,792.1,407.3,775.5,404.4z"/>
		<path class="st0" d="M761.3,310.2c25.4,4.4,48.2,13.2,68.4,26.4c20.2,13.3,37,29.4,50.2,48.4c13.3,19,22.6,40.2,28,63.4
			c5.4,23.3,6,47.1,1.8,71.5c-4.4,25.4-363.1-36.4-358.7-61.8c4.4-25.4,13.2-48.2,26.4-68.4c13.3-20.2,29.4-36.9,48.4-50
			c19-13.1,40.2-22.4,63.6-27.7C713,306.6,736.9,306,761.3,310.2z M750.9,370.6c-15.6-2.7-31-2.1-46.3,1.7
			c-15.3,3.8-29.2,10.2-41.8,19.2c-12.5,9-23.2,20.1-31.9,33.2c-8.7,13.1-14.5,27.8-17.3,44.1c-2.8,16.3-2.3,32,1.5,47.3
			c3.8,15.3,10.1,29.3,18.9,42c8.8,12.7,19.8,23.4,32.9,32.1c13.1,8.7,27.5,14.4,43.1,17.1c15.6,2.7,31,2.1,46.3-1.7
			c15.3-3.8,29.2-10.2,41.8-19.2c12.5-9,23.2-20.1,31.9-33.2c8.7-13.1,14.5-27.8,17.3-44.1c2.6-15.2,2.2-30.5-1.3-45.7
			c-3.5-15.2-9.5-29.3-18.1-42.1c-8.6-12.8-19.4-23.8-32.5-32.8C782.3,379.5,767.5,373.5,750.9,370.6z"/>
		<path class="st0" d="M773.6,340.5c25.4,4.4,48.2,13.2,68.4,26.4c20.2,13.3,37,29.4,50.2,48.4c13.3,19,22.6,40.2,28,63.4
			c5.4,23.3,6,47.1,1.8,71.5c-4.4,25.4-363.1-36.4-358.7-61.8c4.4-25.4,13.2-48.2,26.4-68.4c13.3-20.2,29.4-36.9,48.4-50
			c19-13.1,40.2-22.4,63.6-27.7C725.3,336.9,749.2,336.3,773.6,340.5z M763.2,401c-15.6-2.7-31-2.1-46.3,1.7
			c-15.3,3.8-29.2,10.2-41.8,19.2c-12.5,9-23.2,20.1-31.9,33.2c-8.7,13.1-14.5,27.8-17.3,44.1c-2.8,16.3-2.3,32,1.5,47.3
			c3.8,15.3,10.1,29.3,18.9,42c8.8,12.7,19.8,23.4,32.9,32.1c13.1,8.7,27.5,14.4,43.1,17.1c15.6,2.7,31,2.1,46.3-1.7
			c15.3-3.8,29.2-10.2,41.8-19.2c12.5-9,23.2-20.1,31.9-33.2c8.7-13.1,14.5-27.8,17.3-44.1c2.6-15.2,2.2-30.5-1.3-45.7
			c-3.5-15.2-9.5-29.3-18.1-42.1c-8.6-12.8-19.4-23.8-32.5-32.8C794.6,409.8,779.8,403.8,763.2,401z"/>
		<path class="st0" d="M764.8,328.6c25.4,4.4,48.2,13.2,68.4,26.4c20.2,13.3,37,29.4,50.2,48.4c13.3,19,22.6,40.2,28,63.4
			c5.4,23.3,6,47.1,1.8,71.5c-4.4,25.4-363.1-36.4-358.7-61.8c4.4-25.4,13.2-48.2,26.4-68.4c13.3-20.2,29.4-36.9,48.4-50
			c19-13.1,40.2-22.4,63.6-27.7C716.5,325,740.4,324.4,764.8,328.6z M754.4,389.1c-15.6-2.7-31-2.1-46.3,1.7
			c-15.3,3.8-29.2,10.2-41.8,19.2c-12.5,9-23.2,20.1-31.9,33.2c-8.7,13.1-14.5,27.8-17.3,44.1c-2.8,16.3-2.3,32,1.5,47.3
			c3.8,15.3,10.1,29.3,18.9,42c8.8,12.7,19.8,23.4,32.9,32.1c13.1,8.7,27.5,14.4,43.1,17.1c15.6,2.7,31,2.1,46.3-1.7
			c15.3-3.8,29.2-10.2,41.8-19.2c12.5-9,23.2-20.1,31.9-33.2c8.7-13.1,14.5-27.8,17.3-44.1c2.6-15.2,2.2-30.5-1.3-45.7
			c-3.5-15.2-9.5-29.3-18.1-42.1c-8.6-12.8-19.4-23.8-32.5-32.8C785.8,397.9,771,391.9,754.4,389.1z"/>
		<path class="st0" d="M752.5,334.9c25.4,4.4,48.2,13.2,68.4,26.4c20.2,13.3,37,29.4,50.2,48.4c13.3,19,22.6,40.2,28,63.4
			c5.4,23.3,6,47.1,1.8,71.5c-4.4,25.4-363.1-36.4-358.7-61.8c4.4-25.4,13.2-48.2,26.4-68.4c13.3-20.2,29.4-36.9,48.4-50
			c19-13.1,40.2-22.4,63.6-27.7C704.2,331.3,728.1,330.7,752.5,334.9z M742,395.4c-15.6-2.7-31-2.1-46.3,1.7
			c-15.3,3.8-29.2,10.2-41.8,19.2c-12.5,9-23.2,20.1-31.9,33.2c-8.7,13.1-14.5,27.8-17.3,44.1c-2.8,16.3-2.3,32,1.5,47.3
			c3.8,15.3,10.1,29.3,18.9,42c8.8,12.7,19.8,23.4,32.9,32.1c13.1,8.7,27.5,14.4,43.1,17.1c15.6,2.7,31,2.1,46.3-1.7
			c15.3-3.8,29.2-10.2,41.8-19.2c12.5-9,23.2-20.1,31.9-33.2c8.7-13.2,14.5-27.9,17.3-44.1c2.6-15.2,2.2-30.5-1.3-45.7
			c-3.5-15.2-9.5-29.3-18.1-42.1c-8.6-12.8-19.4-23.8-32.5-32.8C773.5,404.2,758.6,398.2,742,395.4z"/>
		<path class="st0" d="M764.8,308.3c25.4,4.4,48.2,13.2,68.4,26.4c20.2,13.3,37,29.4,50.2,48.4c13.3,19,22.6,40.2,28,63.4
			c5.4,23.3,6,47.1,1.8,71.5c-4.4,25.4-363.1-36.4-358.7-61.8c4.4-25.4,13.2-48.2,26.4-68.4c13.3-20.2,29.4-36.9,48.4-50
			c19-13.1,40.2-22.4,63.6-27.7C716.5,304.7,740.4,304.1,764.8,308.3z M754.4,368.7c-15.6-2.7-31-2.1-46.3,1.7
			c-15.3,3.8-29.2,10.2-41.8,19.2c-12.5,9-23.2,20.1-31.9,33.2c-8.7,13.1-14.5,27.8-17.3,44.1c-2.8,16.3-2.3,32,1.5,47.3
			c3.8,15.3,10.1,29.3,18.9,42c8.8,12.7,19.8,23.4,32.9,32.1c13.1,8.7,27.5,14.4,43.1,17.1c15.6,2.7,31,2.1,46.3-1.7
			c15.3-3.8,29.2-10.2,41.8-19.2c12.5-9,23.2-20.1,31.9-33.2c8.7-13.1,14.5-27.8,17.3-44.1c2.6-15.2,2.2-30.5-1.3-45.7
			c-3.5-15.2-9.5-29.3-18.1-42.1c-8.6-12.8-19.4-23.8-32.5-32.8C785.8,377.6,771,371.6,754.4,368.7z"/>
		<path class="st0" d="M749,336.9c25.4,4.4,48.2,13.2,68.4,26.4c20.2,13.3,37,29.4,50.2,48.4c13.3,19,22.6,40.2,28,63.4
			c5.4,23.3,6,47.1,1.8,71.5c-4.4,25.4-363.1-36.4-358.7-61.8c4.4-25.4,13.2-48.2,26.4-68.4c13.3-20.2,29.4-36.9,48.4-50
			c19-13.1,40.2-22.4,63.6-27.7C700.7,333.3,724.6,332.7,749,336.9z M738.5,397.4c-15.6-2.7-31-2.1-46.3,1.7
			c-15.3,3.8-29.2,10.2-41.8,19.2c-12.5,9-23.2,20.1-31.9,33.2c-8.7,13.1-14.5,27.8-17.3,44.1c-2.8,16.3-2.3,32,1.5,47.3
			c3.8,15.3,10.1,29.3,18.9,42c8.8,12.7,19.8,23.4,32.9,32.1c13.1,8.7,27.5,14.4,43.1,17.1c15.6,2.7,31,2.1,46.3-1.7
			c15.3-3.8,29.2-10.2,41.8-19.2c12.5-9,23.2-20.1,31.9-33.2c8.7-13.1,14.5-27.8,17.3-44.1c2.6-15.2,2.2-30.5-1.3-45.7
			c-3.5-15.2-9.5-29.3-18.1-42.1c-8.6-12.8-19.4-23.8-32.5-32.8C770,406.2,755.1,400.3,738.5,397.4z"/>
	</g>
	<g>
		<path class="st0" d="M1680,665.6h-245.4V302.2h59.8v302.6H1680V665.6z"/>
		<path class="st0" d="M1655.4,631.8H1410V268.4h59.8V571h185.6V631.8z"/>
		<path class="st0" d="M1667.7,662.2h-245.4V298.7h59.8v302.6h185.6V662.2z"/>
		<path class="st0" d="M1658.9,650.2h-245.4V286.8h59.8v302.6h185.6V650.2z"/>
		<path class="st0" d="M1646.5,656.6h-245.4V293.1h59.8v302.6h185.6V656.6z"/>
		<path class="st0" d="M1658.9,629.9h-245.4V266.5h59.8v302.6h185.6V629.9z"/>
		<path class="st0" d="M1643,658.6h-245.4V295.1h59.8v302.6H1643V658.6z"/>
	</g>
	<g>
		<path class="st0" d="M1249.9,589.4c-17.8,18.6-37.9,32.6-60.2,41.9c-22.3,9.3-45,14.2-68.2,14.6c-23.2,0.4-46-3.7-68.3-12.2
			c-22.3-8.5-42.4-21.3-60.2-38.5c-18.6-17.8,233.2-280.6,251.8-262.8c18.6,17.8,32.6,37.9,41.9,60.2c9.3,22.3,14.1,45,14.4,68.1
			c0.2,23.1-3.9,45.8-12.6,68.3C1279.9,551.4,1267,571.6,1249.9,589.4z M1205.6,547c10.9-11.4,19.1-24.5,24.5-39.4
			c5.4-14.8,7.9-29.9,7.4-45.4c-0.5-15.4-3.7-30.4-9.7-45c-6-14.6-15-27.6-26.9-39c-11.9-11.4-25.3-19.8-40.1-25.2
			c-14.8-5.4-30-8-45.4-7.8c-15.4,0.2-30.4,3.3-45,9.3c-14.6,6-27.3,14.7-38.3,26.2c-10.9,11.4-19.1,24.5-24.5,39.4
			c-5.4,14.8-7.9,29.9-7.4,45.4c0.4,15.4,3.7,30.4,9.7,45c6,14.6,15,27.6,26.9,39c11.2,10.7,24,18.9,38.6,24.5
			c14.6,5.6,29.6,8.5,45,8.5c15.4,0,30.6-2.8,45.4-8.6C1180.7,568.1,1193.9,559.1,1205.6,547z"/>
		<path class="st0" d="M1291.7,587.9c-17.8,18.6-37.9,32.6-60.2,41.9c-22.3,9.3-45,14.2-68.2,14.6c-23.2,0.4-46-3.7-68.3-12.2
			c-22.3-8.5-42.4-21.3-60.3-38.5c-18.6-17.8,233.2-280.6,251.8-262.8c18.6,17.8,32.6,37.9,41.9,60.2c9.3,22.3,14.1,45,14.4,68.1
			c0.2,23.1-3.9,45.8-12.6,68.3C1321.7,549.9,1308.8,570,1291.7,587.9z M1247.4,545.5c10.9-11.4,19.1-24.5,24.5-39.4
			c5.4-14.8,7.9-29.9,7.4-45.4c-0.5-15.4-3.7-30.4-9.7-45c-6-14.6-15-27.6-26.9-39c-11.9-11.4-25.3-19.8-40.1-25.2
			c-14.8-5.4-29.9-8-45.4-7.8c-15.4,0.2-30.4,3.3-45,9.3c-14.6,6-27.3,14.7-38.3,26.2c-10.9,11.4-19.1,24.5-24.5,39.4
			c-5.4,14.8-7.9,29.9-7.4,45.4c0.4,15.4,3.7,30.4,9.7,45c6,14.6,15,27.6,26.9,39c11.2,10.7,24,18.9,38.6,24.5
			c14.6,5.6,29.6,8.5,45,8.5c15.4,0,30.6-2.8,45.4-8.6C1222.5,566.6,1235.7,557.6,1247.4,545.5z"/>
		<path class="st0" d="M1259.6,581.1c-17.8,18.6-37.9,32.6-60.2,41.9c-22.3,9.3-45,14.2-68.2,14.6c-23.2,0.4-46-3.7-68.3-12.2
			c-22.3-8.5-42.4-21.3-60.3-38.5c-18.6-17.8,233.2-280.6,251.8-262.8c18.6,17.8,32.6,37.9,41.9,60.2c9.3,22.3,14.1,45,14.4,68.1
			c0.2,23.1-3.9,45.8-12.6,68.3C1289.6,543.1,1276.7,563.3,1259.6,581.1z M1215.3,538.7c10.9-11.4,19.1-24.5,24.5-39.4
			c5.4-14.8,7.9-29.9,7.4-45.4c-0.5-15.4-3.7-30.4-9.7-45c-6-14.6-15-27.6-26.9-39c-11.9-11.4-25.3-19.8-40.1-25.2
			c-14.8-5.4-30-8-45.4-7.8c-15.4,0.2-30.4,3.3-45,9.3c-14.6,6-27.3,14.7-38.3,26.2c-10.9,11.4-19.1,24.5-24.5,39.4
			c-5.4,14.8-7.9,29.9-7.4,45.4c0.4,15.4,3.7,30.4,9.7,45c6,14.6,15,27.6,26.9,39c11.2,10.7,24,18.9,38.6,24.5
			c14.6,5.6,29.6,8.5,45,8.5c15.4,0,30.6-2.8,45.4-8.6C1190.4,559.8,1203.7,550.9,1215.3,538.7z"/>
		<path class="st0" d="M1274.4,580.5c-17.8,18.6-37.9,32.6-60.2,41.9c-22.3,9.3-45,14.2-68.2,14.6c-23.2,0.4-46-3.7-68.3-12.2
			c-22.3-8.5-42.4-21.3-60.3-38.5c-18.6-17.8,233.2-280.6,251.8-262.8c18.6,17.8,32.6,37.9,41.9,60.2c9.3,22.3,14.1,45,14.4,68.1
			c0.2,23.1-3.9,45.8-12.6,68.3C1304.4,542.5,1291.6,562.6,1274.4,580.5z M1230.2,538.1c10.9-11.4,19.1-24.5,24.5-39.4
			c5.4-14.8,7.9-29.9,7.4-45.4c-0.5-15.4-3.7-30.4-9.7-45c-6-14.6-15-27.6-26.9-39c-11.9-11.4-25.3-19.8-40.1-25.2
			c-14.8-5.4-29.9-8-45.4-7.8c-15.4,0.2-30.4,3.3-45,9.3c-14.6,6-27.3,14.7-38.3,26.2c-10.9,11.4-19.1,24.5-24.5,39.4
			c-5.4,14.8-7.9,29.9-7.4,45.4c0.4,15.4,3.7,30.4,9.7,45c6,14.6,15,27.6,26.9,39c11.2,10.7,24,18.9,38.6,24.5
			c14.6,5.6,29.6,8.5,45,8.5c15.4,0,30.6-2.8,45.4-8.6C1205.3,559.2,1218.5,550.2,1230.2,538.1z"/>
		<path class="st0" d="M1276.1,566.7c-17.8,18.6-37.9,32.6-60.2,41.9c-22.3,9.3-45,14.2-68.2,14.6c-23.2,0.4-46-3.7-68.3-12.2
			c-22.3-8.5-42.4-21.3-60.3-38.5c-18.6-17.8,233.2-280.6,251.8-262.8c18.6,17.8,32.6,37.9,41.9,60.2c9.3,22.3,14.1,45,14.4,68.1
			c0.2,23.1-3.9,45.8-12.6,68.3C1306.1,528.7,1293.2,548.9,1276.1,566.7z M1231.8,524.3c10.9-11.4,19.1-24.5,24.5-39.4
			c5.4-14.8,7.9-29.9,7.4-45.4c-0.5-15.4-3.7-30.4-9.7-45c-6-14.6-15-27.6-26.9-39c-11.9-11.4-25.3-19.8-40.1-25.2
			c-14.8-5.4-30-8-45.4-7.8c-15.4,0.2-30.4,3.3-45,9.3c-14.6,6-27.3,14.7-38.3,26.2c-10.9,11.4-19.1,24.5-24.5,39.4
			c-5.4,14.8-7.9,29.9-7.4,45.4c0.4,15.4,3.7,30.4,9.7,45c6,14.6,15,27.6,26.9,39c11.2,10.7,24,18.9,38.6,24.5
			c14.6,5.6,29.6,8.5,45,8.5c15.4,0,30.6-2.8,45.4-8.6C1206.9,545.4,1220.1,536.5,1231.8,524.3z"/>
		<path class="st0" d="M1291.3,591.9c-17.8,18.6-37.9,32.6-60.2,41.9c-22.3,9.3-45,14.2-68.2,14.6c-23.2,0.4-46-3.7-68.3-12.2
			c-22.3-8.5-42.4-21.3-60.3-38.5c-18.6-17.8,233.2-280.6,251.8-262.8c18.6,17.8,32.6,37.9,41.9,60.2c9.3,22.3,14.1,45,14.4,68.1
			c0.2,23.1-3.9,45.8-12.6,68.3C1321.3,553.8,1308.4,574,1291.3,591.9z M1247,549.4c10.9-11.4,19.1-24.5,24.5-39.4
			c5.4-14.8,7.9-29.9,7.4-45.4c-0.5-15.4-3.7-30.4-9.7-45c-6-14.6-15-27.6-26.9-39c-11.9-11.4-25.3-19.8-40.1-25.2
			c-14.8-5.4-29.9-8-45.4-7.8c-15.4,0.2-30.4,3.3-45,9.3c-14.6,6-27.3,14.7-38.3,26.2c-10.9,11.4-19.1,24.5-24.5,39.4
			c-5.4,14.8-7.9,29.9-7.4,45.4c0.4,15.4,3.7,30.4,9.7,45c6,14.6,15,27.6,26.9,39c11.2,10.7,24,18.9,38.6,24.5
			c14.6,5.6,29.6,8.5,45,8.5c15.4,0,30.6-2.8,45.4-8.6C1222.1,570.5,1235.3,561.6,1247,549.4z"/>
		<path class="st0" d="M1276.4,562.7c-17.8,18.6-37.9,32.6-60.2,41.9c-22.3,9.3-45,14.2-68.2,14.6c-23.2,0.4-46-3.7-68.3-12.2
			c-22.3-8.5-42.4-21.3-60.2-38.5c-18.6-17.8,233.2-280.6,251.8-262.8c18.6,17.8,32.6,37.9,41.9,60.2c9.3,22.3,14.1,45,14.4,68.1
			c0.2,23.1-3.9,45.8-12.6,68.3C1306.4,524.7,1293.5,544.9,1276.4,562.7z M1232.1,520.3c10.9-11.4,19.1-24.5,24.5-39.4
			c5.4-14.8,7.9-29.9,7.4-45.4c-0.5-15.4-3.7-30.4-9.7-45c-6-14.6-15-27.6-26.9-39c-11.9-11.4-25.3-19.8-40.1-25.2
			c-14.8-5.4-29.9-8-45.4-7.8c-15.4,0.2-30.4,3.3-45,9.3c-14.6,6-27.3,14.7-38.3,26.2c-10.9,11.4-19.1,24.5-24.5,39.4
			c-5.4,14.8-7.9,29.9-7.4,45.4c0.4,15.4,3.7,30.4,9.7,45c6,14.6,15,27.6,26.9,39c11.2,10.7,24,18.9,38.6,24.5
			c14.6,5.6,29.6,8.5,45,8.5c15.4,0,30.6-2.8,45.4-8.6C1207.2,541.4,1220.4,532.4,1232.1,520.3z"/>
	</g>
</g>
<text transform="matrix(1 0 0 1 1034 797)" class="st1 st2">SKATEBOARDS</text>
</svg>
